<svg xmlns="http://www.w3.org/2000/svg" width="240" height="210" viewBox="0 0 240 210" version="1.1">
	<path d="M 116.379 15.437 C 114.663 16.184, 112.128 18.304, 110.748 20.147 C 109.367 21.991, 85.573 59.500, 57.872 103.500 C 9.775 179.896, 7.506 183.713, 7.503 188.231 C 7.500 192.186, 8.006 193.468, 10.588 196.050 C 12.286 197.748, 15.436 199.546, 17.588 200.045 C 22.795 201.253, 221.264 201.238, 226.500 200.029 C 229.033 199.444, 231.692 197.808, 233.750 195.568 C 239.778 189.005, 239.504 188.285, 217.871 153.903 C 151.651 48.655, 135.509 23.137, 133.259 20.144 C 129.057 14.554, 122.566 12.744, 116.379 15.437 M 117.233 18.330 C 115.927 19.055, 92.953 54.519, 63.001 102.044 C 22.701 165.992, 11.032 185.217, 11.018 187.694 C 11.007 189.649, 11.936 191.977, 13.413 193.694 L 15.827 196.500 122.500 196.500 L 229.173 196.500 231.587 193.694 C 233.060 191.981, 233.995 189.645, 233.986 187.694 C 233.975 185.214, 222.369 166.084, 182.033 102.060 C 151.566 53.702, 129.145 19.094, 127.797 18.346 C 124.868 16.720, 120.144 16.713, 117.233 18.330 M 118.205 21.750 C 115.101 24.444, 14 185.678, 14 187.935 C 14 189.028, 14.985 190.840, 16.189 191.961 C 18.362 193.986, 19.096 194, 122.500 194 C 225.904 194, 226.638 193.986, 228.811 191.961 C 230.015 190.840, 231 189.009, 231 187.893 C 231 185.590, 129.948 24.444, 126.814 21.750 C 125.694 20.788, 123.753 20, 122.500 20 C 121.247 20, 119.314 20.788, 118.205 21.750 M 83.706 112.475 C 62.418 146.280, 45 174.177, 45 174.469 C 45 174.761, 79.875 175, 122.500 175 C 165.125 175, 200 174.733, 200 174.407 C 200 173.838, 124.366 53.279, 123.054 51.756 C 122.701 51.347, 104.995 78.671, 83.706 112.475 M 66 145.600 L 66 149.254 71 148.774 L 76 148.294 76 160.647 L 76 173 80.500 173 L 85 173 85 160.588 L 85 148.176 89.750 148.338 C 94.397 148.496, 94.500 148.435, 94.500 145.500 L 94.500 142.500 80.250 142.223 L 66 141.945 66 145.600 M 97.667 142.667 C 97.300 143.033, 97 150.022, 97 158.197 L 97 173.062 109.250 172.781 L 121.500 172.500 121.500 169.500 L 121.500 166.500 113.750 166.859 L 106 167.218 106 163.609 L 106 160 112 160 L 118 160 118 157 L 118 154 112 154 C 106.267 154, 106 153.889, 106 151.500 C 106 149.071, 106.200 149, 113 149 L 120 149 120 145.500 L 120 142 109.167 142 C 103.208 142, 98.033 142.300, 97.667 142.667 M 128.277 143.973 C 124.689 146.160, 123.249 149.998, 124.606 153.754 C 125.485 156.186, 128.593 158.277, 136.500 161.756 C 143.240 164.721, 141.788 166.490, 132.556 166.559 C 124.660 166.617, 124.608 166.635, 123.839 169.508 C 123.414 171.098, 123.307 172.641, 123.602 172.935 C 124.757 174.091, 140.633 173.444, 143.788 172.113 C 147.698 170.464, 149 168.350, 149 163.655 C 149 159.333, 145.304 155.926, 137.977 153.492 C 134.262 152.259, 132.980 151.358, 133.220 150.152 C 133.484 148.822, 134.798 148.500, 139.950 148.500 C 146.053 148.500, 146.386 148.374, 147.073 145.813 C 147.469 144.336, 147.540 142.873, 147.230 142.563 C 146.920 142.253, 143.254 142.002, 139.083 142.004 C 133.310 142.007, 130.731 142.476, 128.277 143.973 M 149.777 145.066 C 149.233 148.773, 150.434 149.473, 156.048 148.720 L 160 148.190 160 160.653 L 160 173.115 164.250 172.807 L 168.500 172.500 168.779 160.439 L 169.059 148.378 173.779 148.439 C 178.371 148.498, 178.500 148.418, 178.500 145.500 L 178.500 142.500 164.367 142.223 L 150.235 141.947 149.777 145.066" stroke="none" fill="black" fill-rule="evenodd"/>
</svg>