<svg xmlns="http://www.w3.org/2000/svg" width="240" height="210" viewBox="0 0 240 210" version="1.1">
	<rect x="0" y="0" width="100%" height="100%" fill="#49ffd2" />
	<path d="M 113.684 20.250 C 111.501 22.587, 87.057 60.500, 59.365 104.500 C 3.983 192.497, 5.935 188.781, 11.940 194.786 C 13.557 196.403, 16.313 198.013, 18.065 198.363 C 23.637 199.477, 223.125 199.093, 227.205 197.960 C 229.242 197.394, 231.829 195.761, 232.955 194.331 C 236.149 190.270, 235.357 189.843, 231.600 193.600 L 228.200 197 122.616 197 L 17.032 197 13.816 194.127 C 11.374 191.945, 10.608 190.441, 10.634 187.877 C 10.660 185.173, 20.890 168.258, 61.966 103 C 90.181 58.175, 114.096 20.622, 115.112 19.548 C 116.168 18.432, 119.002 17.312, 121.730 16.932 L 126.500 16.267 122.077 16.134 C 118.088 16.013, 117.264 16.417, 113.684 20.250 M 129 18.378 C 129 18.585, 129.787 19.373, 130.750 20.128 C 132.336 21.371, 132.371 21.336, 131.128 19.750 C 129.821 18.084, 129 17.555, 129 18.378 M 119.500 21.108 C 117.761 21.991, 98.104 52.752, 29.607 161.781 C 15.042 184.964, 13.809 187.285, 14.845 189.559 C 15.467 190.924, 17.152 192.487, 18.589 193.034 C 20.276 193.675, 57.733 193.934, 124.190 193.764 L 227.177 193.500 229.155 191.057 C 230.243 189.714, 230.941 187.883, 230.707 186.989 C 230.326 185.530, 128.709 23.464, 127.146 21.821 C 125.902 20.513, 121.482 20.101, 119.500 21.108 M 134.872 26.500 C 135.412 27.600, 136.586 29.400, 137.482 30.500 L 139.110 32.500 138.128 30.500 C 137.588 29.400, 136.414 27.600, 135.518 26.500 L 133.890 24.500 134.872 26.500 M 139.872 34.500 C 140.412 35.600, 141.586 37.400, 142.482 38.500 L 144.110 40.500 143.128 38.500 C 142.588 37.400, 141.414 35.600, 140.518 34.500 L 138.890 32.500 139.872 34.500 M 145.524 43.566 C 146.453 45.252, 148.103 47.727, 149.190 49.066 L 151.167 51.500 149.476 48.434 C 148.547 46.748, 146.897 44.273, 145.810 42.934 L 143.833 40.500 145.524 43.566 M 119.752 54.626 C 111.641 67.557, 91.362 99.766, 69.341 134.694 C 55.404 156.800, 44 175.138, 44 175.444 C 44 175.750, 79.325 176, 122.500 176 C 165.675 176, 201 175.733, 201 175.407 C 201 174.606, 125.041 53.864, 123.444 52.126 C 122.394 50.984, 121.772 51.405, 119.752 54.626 M 151.872 53.500 C 152.412 54.600, 153.586 56.400, 154.482 57.500 L 156.110 59.500 155.128 57.500 C 154.588 56.400, 153.414 54.600, 152.518 53.500 L 150.890 51.500 151.872 53.500 M 156.872 61.500 C 157.412 62.600, 158.586 64.400, 159.482 65.500 L 161.110 67.500 160.128 65.500 C 159.588 64.400, 158.414 62.600, 157.518 61.500 L 155.890 59.500 156.872 61.500 M 162.524 70.566 C 163.453 72.252, 165.103 74.727, 166.190 76.066 L 168.167 78.500 166.476 75.434 C 165.547 73.748, 163.897 71.273, 162.810 69.934 L 160.833 67.500 162.524 70.566 M 168.872 80.500 C 169.412 81.600, 170.586 83.400, 171.482 84.500 L 173.110 86.500 172.128 84.500 C 171.588 83.400, 170.414 81.600, 169.518 80.500 L 167.890 78.500 168.872 80.500 M 173.872 88.500 C 174.412 89.600, 175.586 91.400, 176.482 92.500 L 178.110 94.500 177.128 92.500 C 176.588 91.400, 175.414 89.600, 174.518 88.500 L 172.890 86.500 173.872 88.500 M 180.872 99.500 C 181.412 100.600, 182.586 102.400, 183.482 103.500 L 185.110 105.500 184.128 103.500 C 183.588 102.400, 182.414 100.600, 181.518 99.500 L 179.890 97.500 180.872 99.500 M 185.872 107.500 C 186.412 108.600, 187.586 110.400, 188.482 111.500 L 190.110 113.500 189.128 111.500 C 188.588 110.400, 187.414 108.600, 186.518 107.500 L 184.890 105.500 185.872 107.500 M 190.872 115.500 C 191.412 116.600, 192.586 118.400, 193.482 119.500 L 195.110 121.500 194.128 119.500 C 193.588 118.400, 192.414 116.600, 191.518 115.500 L 189.890 113.500 190.872 115.500 M 197.872 126.500 C 198.412 127.600, 199.586 129.400, 200.482 130.500 L 202.110 132.500 201.128 130.500 C 200.588 129.400, 199.414 127.600, 198.518 126.500 L 196.890 124.500 197.872 126.500 M 202.872 134.500 C 203.412 135.600, 204.586 137.400, 205.482 138.500 L 207.110 140.500 206.128 138.500 C 205.588 137.400, 204.414 135.600, 203.518 134.500 L 201.890 132.500 202.872 134.500 M 208.524 143.566 C 209.453 145.252, 211.103 147.727, 212.190 149.066 L 214.167 151.500 212.476 148.434 C 211.547 146.748, 209.897 144.273, 208.810 142.934 L 206.833 140.500 208.524 143.566 M 131.272 142.850 C 125.480 144.541, 122.621 150.246, 125.423 154.522 C 126.326 155.901, 130.071 158.486, 133.744 160.265 C 137.418 162.044, 140.589 164.060, 140.793 164.744 C 141.454 166.968, 135.965 168.277, 130.227 167.264 C 125.147 166.366, 124.933 166.420, 124.351 168.739 C 123.387 172.577, 125.065 173.235, 134.824 172.853 C 142.723 172.544, 144.161 172.199, 146.421 170.076 C 149.193 167.470, 149.793 163.350, 147.913 159.838 C 147.315 158.721, 143.455 156.271, 139.334 154.392 C 130.061 150.167, 130.076 148.500, 139.384 148.500 C 145.597 148.500, 146.135 148.326, 146.681 146.143 C 147.048 144.674, 146.749 143.455, 145.885 142.908 C 144.309 141.910, 134.625 141.871, 131.272 142.850 M 66.184 145.722 C 66.484 148.307, 66.738 148.429, 71.250 148.146 C 76.707 147.805, 76.238 146.412, 76.410 163.500 L 76.500 172.500 80.500 172.500 L 84.500 172.500 84.781 160.176 L 85.063 147.853 89.781 148.148 C 94.258 148.428, 94.516 148.304, 94.816 145.722 L 95.133 143 80.500 143 L 65.867 143 66.184 145.722 M 97.609 157.750 L 97.718 172.500 109.359 172.782 L 121 173.063 121 170.032 L 121 167 113.500 167 L 106 167 106 163.550 L 106 160.100 111.750 159.800 C 117.137 159.519, 117.500 159.342, 117.500 157 C 117.500 154.664, 117.130 154.481, 111.858 154.203 C 106.716 153.933, 106.172 153.682, 105.731 151.374 C 105.105 148.099, 106.568 147.580, 114.045 148.426 L 120 149.099 120 146.050 L 120 143 108.750 143 L 97.500 143 97.609 157.750 M 150.184 145.722 C 150.484 148.304, 150.742 148.428, 155.219 148.148 L 159.937 147.853 160.219 160.176 L 160.500 172.500 164.423 172.500 L 168.345 172.500 168.100 160.250 L 167.854 148 172.811 148 C 177.303 148, 177.812 147.766, 178.245 145.500 L 178.723 143 164.295 143 L 149.867 143 150.184 145.722 M 214.872 153.500 C 215.412 154.600, 216.586 156.400, 217.482 157.500 L 219.110 159.500 218.128 157.500 C 217.588 156.400, 216.414 154.600, 215.518 153.500 L 213.890 151.500 214.872 153.500 M 220.228 162.250 C 221.030 163.488, 223.597 167.537, 225.932 171.250 C 228.268 174.963, 230.416 178, 230.705 178 C 230.994 178, 230.574 176.988, 229.772 175.750 C 228.970 174.512, 226.403 170.463, 224.068 166.750 C 221.732 163.037, 219.584 160, 219.295 160 C 219.006 160, 219.426 161.012, 220.228 162.250 M 232 181 C 232.589 182.100, 233.295 183, 233.570 183 C 233.845 183, 233.589 182.100, 233 181 C 232.411 179.900, 231.705 179, 231.430 179 C 231.155 179, 231.411 179.900, 232 181" stroke="none" fill="blue" fill-rule="evenodd"/>
</svg>